<svg viewBox="0 0 192.48 55.78" version="1.1" xmlns="http://www.w3.org/2000/svg" id="Layer_1">
  
  <defs>
    <style>
      .st0 {
        fill: #1e1e1e;
      }
    </style>
  </defs>
  <polygon points="44.67 .52 26.14 44.95 7.61 .52 0 .52 23.55 54.33 28.73 54.33 52.28 .52 44.67 .52" class="st0"></polygon>
  <rect height="38.83" width="6.44" y="15.88" x="113.71" class="st0"></rect>
  <path d="M142.49,31.97c-6.92-2.3-9.96-3.41-9.96-6.29,0-3.32,3.82-5.21,8.21-5.21,6.2,0,7.95,4.06,8.32,6.38l.03.16,5.91-.04v-.19c0-2.43-2.54-12.26-14.26-12.26-9.14,0-14.08,5.81-14.08,11.28,0,6.71,3.44,8.95,14.08,11.95,4.71,1.33,9,2.96,9,6.85s-4.53,5.23-8.77,5.23c-5.62,0-9.4-3.73-9.4-7.03v-.19h-6.43v.19c0,7.64,6.49,12.98,15.79,12.98s14.91-4.49,14.91-11.18c0-8.36-7.35-10.64-13.35-12.63Z" class="st0"></path>
  <path d="M98.53,19.44c-1.1,1.11-2.03,3.17-2.81,4.65v-8.22h-6.44v38.46h6.44v-23.03c0-2.07.92-4.03,2.58-5.52,2.37-2.12,5.89-3.05,9.93-2.61l.21.02.03-7.06-.16-.02c-3.82-.48-7.11.64-9.77,3.33Z" class="st0"></path>
  <path d="M64.68,14.52c-10.66,0-19.02,9.06-19.02,20.63s8,20.63,19.02,20.63c11.98,0,16.57-7.64,18.32-14.06l.06-.24h-6.75s-2.03,8.18-11.63,8.18c-5.68,0-12.15-4.62-12.48-12.74h31.28l.03-.15c.01-.06.28-1.47.03-4.35-.94-10.88-8.34-17.91-18.86-17.91ZM77.03,31.23h-24.5c.8-6.18,5.86-10.7,12.15-10.7s11.19,4.34,12.35,10.7Z" class="st0"></path>
  <path d="M117.02,0c-1.18,0-2.19.41-3,1.23-.82.82-1.23,1.83-1.23,3s.41,2.19,1.23,3c.82.81,1.83,1.23,3,1.23s2.11-.41,2.91-1.23c.79-.82,1.19-1.83,1.19-3s-.4-2.19-1.19-3c-.79-.82-1.77-1.23-2.91-1.23Z" class="st0"></path>
  <path d="M179.52,14.16c-7.3,0-11.24,5.07-12.79,8.29V.59h-6.44v53.74h6.44v-23.74c0-4,3.05-9.64,9.85-9.64,4.37,0,9.47,2.57,9.47,9.81v23.57h6.44v-24.39c0-11.64-6.4-15.79-12.96-15.79Z" class="st0"></path>
</svg>